<svg xmlns="http://www.w3.org/2000/svg" width="268" height="25" viewBox="0 0 268 25" fill="none"><path d="M12.5522 18.813C9.00925 18.813 6.17488 15.9961 6.17488 12.4749C6.17488 8.95381 9.05987 6.1369 12.5522 6.1369C14.2731 6.1369 15.8421 6.84113 17.0062 7.94777L21.359 3.62181C19.0814 1.40853 15.994 0.0503861 12.5522 0.0503861C5.61813 8.42474e-05 0 5.58358 0 12.4749C0 19.3663 5.61813 24.9498 12.5522 24.9498C15.994 24.9498 19.0814 23.5916 21.359 21.3784L17.0062 17.0524C15.8421 18.159 14.2731 18.813 12.5522 18.813Z" fill="#00A1E0"/><path d="M35.3787 0C31.937 0 28.7989 1.40845 26.5213 3.62173L26.4707 3.67203L17.6133 12.4748L26.5213 21.328L26.5719 21.3783C28.8495 23.6418 31.9876 25 35.4293 25C42.3634 25 47.9816 19.4165 47.9816 12.5252C47.9816 5.6338 42.3128 0 35.3787 0ZM35.3787 18.8129C33.6579 18.8129 32.0382 18.1087 30.9247 17.002L26.3695 12.4748L30.9247 7.94769C32.0888 6.84105 33.6579 6.13682 35.3787 6.13682C38.9217 6.13682 41.7561 8.95372 41.7561 12.4748C41.7561 15.996 38.9217 18.8129 35.3787 18.8129Z" fill="#00A1E0"/><path d="M76.4777 5.68406C75.7691 4.72833 74.9087 4.0241 73.8964 3.57138C72.8841 3.11867 71.7706 2.86716 70.6571 2.86716C69.3412 2.86716 68.177 3.11867 67.0635 3.67199C65.95 4.22531 65.039 4.87923 64.2292 5.78466C63.4193 6.6901 62.812 7.69613 62.4071 8.85308C61.9515 10.01 61.7491 11.2173 61.7491 12.4748C61.7491 13.833 61.9515 15.0905 62.4071 16.2474C62.8626 17.4044 63.4699 18.4104 64.2292 19.2656C64.9884 20.1207 65.95 20.8249 67.0129 21.3279C68.0758 21.8309 69.2905 22.0825 70.6065 22.0825C72.0237 22.0825 73.289 21.7806 74.4025 21.2273C75.516 20.674 76.4777 19.8692 77.3381 18.8128L79.4133 20.5231C78.3504 21.9315 77.0851 22.9376 75.6173 23.5915C74.1495 24.2454 72.4792 24.5472 70.6065 24.5472C68.9362 24.5472 67.3672 24.2454 65.95 23.6418C64.4822 23.0382 63.2675 22.1831 62.2046 21.1267C61.1417 20.0704 60.3319 18.7625 59.7245 17.3038C59.1172 15.845 58.8135 14.1851 58.8135 12.4245C58.8135 10.7142 59.1172 9.15489 59.6739 7.64583C60.2307 6.18708 61.0911 4.87923 62.1034 3.77259C63.1663 2.66595 64.381 1.81082 65.8488 1.2072C67.3166 0.553276 68.8856 0.251465 70.6065 0.251465C72.1755 0.251465 73.6939 0.553276 75.1617 1.1066C76.6295 1.65992 77.8443 2.61565 78.8059 3.8732L76.4777 5.68406Z" fill="#3A3A3C"/><path d="M93.1804 24.6478C91.4089 24.6478 89.7892 24.346 88.2708 23.7424C86.803 23.1388 85.4871 22.2836 84.4242 21.2273C83.3613 20.171 82.5008 18.8631 81.8935 17.3541C81.2861 15.845 80.9824 14.2354 80.9824 12.4748C80.9824 10.7142 81.2861 9.10457 81.8935 7.59552C82.5008 6.08647 83.3613 4.82892 84.4242 3.72228C85.4871 2.61564 86.803 1.81081 88.2708 1.20719C89.7386 0.603569 91.3583 0.301758 93.1804 0.301758C94.9518 0.301758 96.5715 0.603569 98.0899 1.20719C99.5577 1.81081 100.874 2.66594 101.937 3.72228C102.999 4.77862 103.86 6.08647 104.467 7.59552C105.075 9.10457 105.378 10.7142 105.378 12.4748C105.378 14.2354 105.075 15.845 104.467 17.3541C103.86 18.8631 102.999 20.1207 101.937 21.2273C100.874 22.334 99.5577 23.1388 98.0899 23.7424C96.5715 24.346 94.9518 24.6478 93.1804 24.6478ZM93.1804 22.0824C94.5469 22.0824 95.7617 21.8309 96.9258 21.3279C98.0393 20.8249 99.0009 20.1207 99.8614 19.2655C100.671 18.4104 101.279 17.3541 101.734 16.1971C102.19 15.0402 102.392 13.7826 102.392 12.4748C102.392 11.1669 102.19 9.9094 101.734 8.75246C101.279 7.59552 100.671 6.58948 99.8614 5.68405C99.0516 4.82892 98.0899 4.1247 96.9258 3.62168C95.8123 3.11866 94.5469 2.86715 93.1804 2.86715C91.8138 2.86715 90.599 3.11866 89.4349 3.62168C88.3214 4.1247 87.3598 4.82892 86.4993 5.68405C85.6895 6.53918 85.0315 7.59552 84.6266 8.75246C84.1711 9.9094 83.9686 11.1669 83.9686 12.4748C83.9686 13.7826 84.1711 15.0402 84.6266 16.1971C85.0821 17.3541 85.6895 18.3601 86.4993 19.2655C87.3091 20.1207 88.2708 20.8249 89.4349 21.3279C90.5484 21.8309 91.8138 22.0824 93.1804 22.0824Z" fill="#3A3A3C"/><path d="M108.364 0.905273H117.323C118.082 0.905273 118.892 1.00588 119.752 1.15678C120.613 1.30769 121.473 1.6095 122.283 2.01191C123.143 2.41433 123.953 2.86704 124.713 3.52097C125.472 4.12459 126.18 4.87912 126.788 5.73425C127.395 6.58938 127.851 7.59541 128.205 8.70205C128.559 9.80869 128.711 11.1165 128.711 12.525C128.711 13.9334 128.559 15.191 128.205 16.3479C127.851 17.4546 127.395 18.4606 126.788 19.3157C126.18 20.1709 125.522 20.9254 124.713 21.529C123.953 22.1326 123.143 22.6357 122.283 23.0381C121.423 23.4405 120.613 23.692 119.752 23.8932C118.892 24.0441 118.082 24.1447 117.323 24.1447H108.364V0.905273ZM111.148 21.529H116.412C117.728 21.529 118.993 21.3781 120.107 21.026C121.271 20.6739 122.232 20.1206 123.093 19.4163C123.903 18.6618 124.561 17.7564 125.067 16.5994C125.573 15.4425 125.775 14.0843 125.775 12.525C125.775 10.9153 125.522 9.55718 125.067 8.45054C124.561 7.2936 123.903 6.38817 123.093 5.63364C122.283 4.87912 121.271 4.3761 120.107 4.02399C118.943 3.67187 117.728 3.52097 116.412 3.52097H111.148V21.529Z" fill="#3A3A3C"/><path d="M132.204 0.905273H146.831V3.47067H134.937V10.7141H146.021V13.2795H134.937V21.529H147.388V24.0944H132.153V0.905273H132.204Z" fill="#3A3A3C"/><path d="M169.709 24.6478C167.937 24.6478 166.318 24.346 164.799 23.7424C163.331 23.1388 162.015 22.2836 160.952 21.2273C159.89 20.171 159.029 18.8631 158.422 17.3541C157.814 15.845 157.511 14.2354 157.511 12.4748C157.511 10.7142 157.814 9.10457 158.422 7.59552C159.029 6.08647 159.89 4.82892 160.952 3.72228C162.015 2.66594 163.331 1.81081 164.799 1.20719C166.267 0.603569 167.887 0.301758 169.709 0.301758C171.48 0.301758 173.1 0.603569 174.618 1.20719C176.086 1.81081 177.402 2.66594 178.465 3.72228C179.528 4.77862 180.388 6.08647 180.996 7.59552C181.603 9.10457 181.907 10.7142 181.907 12.4748C181.907 14.2354 181.603 15.845 180.996 17.3541C180.388 18.8631 179.528 20.1207 178.465 21.2273C177.402 22.2836 176.086 23.1388 174.618 23.7424C173.1 24.346 171.48 24.6478 169.709 24.6478ZM169.709 22.0824C171.075 22.0824 172.29 21.8309 173.454 21.3279C174.568 20.8249 175.529 20.1207 176.39 19.2655C177.2 18.4104 177.807 17.3541 178.262 16.1971C178.718 15.0402 178.92 13.7826 178.92 12.4748C178.92 11.1669 178.718 9.9094 178.262 8.75246C177.807 7.59552 177.2 6.58948 176.39 5.68405C175.58 4.82892 174.618 4.1247 173.454 3.62168C172.341 3.11866 171.075 2.86715 169.709 2.86715C168.342 2.86715 167.127 3.11866 165.963 3.62168C164.85 4.1247 163.888 4.82892 163.028 5.68405C162.218 6.53918 161.61 7.59552 161.155 8.75246C160.699 9.9094 160.497 11.1669 160.497 12.4748C160.497 13.7826 160.699 15.0402 161.155 16.1971C161.61 17.3541 162.218 18.3601 163.028 19.2655C163.837 20.1207 164.799 20.8249 165.963 21.3279C167.077 21.8309 168.342 22.0824 169.709 22.0824Z" fill="#3A3A3C"/><path d="M201.646 5.68406C200.937 4.72833 200.077 4.0241 199.064 3.57138C198.052 3.11867 196.939 2.86716 195.825 2.86716C194.509 2.86716 193.345 3.11867 192.231 3.67199C191.169 4.17501 190.207 4.87923 189.397 5.78466C188.587 6.6901 187.98 7.69613 187.575 8.85308C187.12 10.01 186.917 11.2173 186.917 12.4748C186.917 13.833 187.12 15.0905 187.575 16.2474C188.031 17.4044 188.638 18.4104 189.397 19.2656C190.156 20.1207 191.118 20.8249 192.181 21.3279C193.244 21.8309 194.458 22.0825 195.774 22.0825C197.192 22.0825 198.457 21.7806 199.57 21.2273C200.684 20.674 201.646 19.8692 202.506 18.8128L204.581 20.5231C203.518 21.9315 202.253 22.9376 200.785 23.5915C199.317 24.2454 197.647 24.5472 195.774 24.5472C194.104 24.5472 192.535 24.2454 191.118 23.6418C189.65 23.0382 188.435 22.1831 187.373 21.1267C186.31 20.0704 185.5 18.7625 184.892 17.3038C184.285 15.845 183.981 14.1851 183.981 12.4245C183.981 10.7142 184.285 9.15489 184.842 7.64583C185.399 6.18708 186.259 4.87923 187.271 3.77259C188.334 2.66595 189.549 1.81082 191.017 1.2072C192.485 0.553276 194.054 0.251465 195.774 0.251465C197.343 0.251465 198.862 0.553276 200.33 1.1066C201.797 1.65992 203.012 2.61565 203.974 3.8732L201.646 5.68406Z" fill="#3A3A3C"/><path d="M207.517 0.905273H222.144V3.47067H210.25V10.7141H221.334V13.2795H210.25V21.529H222.701V24.0944H207.517V0.905273Z" fill="#3A3A3C"/><path d="M233.583 0.905273H236.164L246.085 24.0441H242.846L240.467 18.36H228.825L226.447 24.0441H223.309L233.583 0.905273ZM234.849 4.4264H234.798L229.939 15.7946H239.454L234.849 4.4264Z" fill="#3A3A3C"/><path d="M248.21 0.905273H251.702L265.165 20.1206H265.216V0.905273H268V24.0441H264.507L250.994 4.82881H250.943V24.0441H248.159V0.905273H248.21Z" fill="#3A3A3C"/></svg>